<svg width="286" height="40" viewBox="0 0 286 40" fill="none" xmlns="http://www.w3.org/2000/svg">
<path d="M50.82 30V16.112H53.984L54.264 18.464C54.6933 17.6427 55.3093 16.9893 56.112 16.504C56.9333 16.0187 57.8947 15.776 58.996 15.776C60.7133 15.776 62.048 16.3173 63 17.4C63.952 18.4827 64.428 20.0693 64.428 22.16V30H60.844V22.496C60.844 21.3013 60.6013 20.3867 60.116 19.752C59.6307 19.1173 58.8747 18.8 57.848 18.8C56.84 18.8 56.0093 19.1547 55.356 19.864C54.7213 20.5733 54.404 21.5627 54.404 22.832V30H50.82ZM73.0632 30.336C71.3272 30.336 69.9832 29.7947 69.0312 28.712C68.0978 27.6293 67.6312 26.0427 67.6312 23.952V16.112H71.1872V23.616C71.1872 24.8107 71.4298 25.7253 71.9152 26.36C72.4005 26.9947 73.1658 27.312 74.2112 27.312C75.2005 27.312 76.0125 26.9573 76.6472 26.248C77.3005 25.5387 77.6272 24.5493 77.6272 23.28V16.112H81.2112V30H78.0472L77.7672 27.648C77.3378 28.4693 76.7125 29.1227 75.8912 29.608C75.0885 30.0933 74.1458 30.336 73.0632 30.336ZM83.5743 30L88.6143 23.056L83.5743 16.112H87.4103L90.9383 21.04L94.4383 16.112H98.3023L93.2343 23.056L98.3023 30H94.4383L90.9383 25.072L87.4103 30H83.5743ZM106.774 30C105.318 30 104.151 29.6453 103.274 28.936C102.396 28.2267 101.958 26.9667 101.958 25.156V19.108H99.5776V16.112H101.958L102.378 12.388H105.542V16.112H109.294V19.108H105.542V25.184C105.542 25.856 105.682 26.3227 105.962 26.584C106.26 26.8267 106.764 26.948 107.474 26.948H109.21V30H106.774ZM111.195 33.108L118.195 8.244H121.695L114.667 33.108H111.195Z" fill="#003C3C"/>
<path d="M129.896 30.336C128.664 30.336 127.581 30.14 126.648 29.748C125.715 29.3373 124.968 28.7773 124.408 28.068C123.848 27.3587 123.512 26.5373 123.4 25.604H127.012C127.124 26.1453 127.423 26.612 127.908 27.004C128.412 27.3773 129.056 27.564 129.84 27.564C130.624 27.564 131.193 27.4053 131.548 27.088C131.921 26.7707 132.108 26.4067 132.108 25.996C132.108 25.3987 131.847 24.9973 131.324 24.792C130.801 24.568 130.073 24.3533 129.14 24.148C128.543 24.0173 127.936 23.8587 127.32 23.672C126.704 23.4853 126.135 23.252 125.612 22.972C125.108 22.6733 124.697 22.3 124.38 21.852C124.063 21.3853 123.904 20.816 123.904 20.144C123.904 18.912 124.389 17.876 125.36 17.036C126.349 16.196 127.731 15.776 129.504 15.776C131.147 15.776 132.453 16.1587 133.424 16.924C134.413 17.6893 135.001 18.744 135.188 20.088H131.8C131.595 19.0613 130.82 18.548 129.476 18.548C128.804 18.548 128.281 18.6787 127.908 18.94C127.553 19.2013 127.376 19.528 127.376 19.92C127.376 20.3307 127.647 20.6573 128.188 20.9C128.729 21.1427 129.448 21.3667 130.344 21.572C131.315 21.796 132.201 22.048 133.004 22.328C133.825 22.5893 134.479 22.9907 134.964 23.532C135.449 24.0547 135.692 24.8107 135.692 25.8C135.711 26.6587 135.487 27.4333 135.02 28.124C134.553 28.8147 133.881 29.356 133.004 29.748C132.127 30.14 131.091 30.336 129.896 30.336ZM145.531 30.336C144.187 30.336 142.974 30.028 141.891 29.412C140.827 28.796 139.978 27.9467 139.343 26.864C138.727 25.7627 138.419 24.4933 138.419 23.056C138.419 21.6187 138.736 20.3587 139.371 19.276C140.006 18.1747 140.855 17.316 141.919 16.7C143.002 16.084 144.215 15.776 145.559 15.776C146.884 15.776 148.079 16.084 149.143 16.7C150.226 17.316 151.075 18.1747 151.691 19.276C152.326 20.3587 152.643 21.6187 152.643 23.056C152.643 24.4933 152.326 25.7627 151.691 26.864C151.075 27.9467 150.226 28.796 149.143 29.412C148.06 30.028 146.856 30.336 145.531 30.336ZM145.531 27.228C146.464 27.228 147.276 26.8827 147.967 26.192C148.658 25.4827 149.003 24.4373 149.003 23.056C149.003 21.6747 148.658 20.6387 147.967 19.948C147.276 19.2387 146.474 18.884 145.559 18.884C144.607 18.884 143.786 19.2387 143.095 19.948C142.423 20.6387 142.087 21.6747 142.087 23.056C142.087 24.4373 142.423 25.4827 143.095 26.192C143.786 26.8827 144.598 27.228 145.531 27.228ZM162.651 30.336C161.233 30.336 159.982 30.028 158.899 29.412C157.817 28.796 156.958 27.9373 156.323 26.836C155.707 25.7347 155.399 24.4747 155.399 23.056C155.399 21.6373 155.707 20.3773 156.323 19.276C156.958 18.1747 157.817 17.316 158.899 16.7C159.982 16.084 161.233 15.776 162.651 15.776C164.425 15.776 165.918 16.2427 167.131 17.176C168.345 18.0907 169.119 19.36 169.455 20.984H165.675C165.489 20.312 165.115 19.7893 164.555 19.416C164.014 19.024 163.37 18.828 162.623 18.828C161.634 18.828 160.794 19.2013 160.103 19.948C159.413 20.6947 159.067 21.7307 159.067 23.056C159.067 24.3813 159.413 25.4173 160.103 26.164C160.794 26.9107 161.634 27.284 162.623 27.284C163.37 27.284 164.014 27.0973 164.555 26.724C165.115 26.3507 165.489 25.8187 165.675 25.128H169.455C169.119 26.696 168.345 27.956 167.131 28.908C165.918 29.86 164.425 30.336 162.651 30.336ZM174.568 13.956C173.915 13.956 173.374 13.76 172.944 13.368C172.534 12.976 172.328 12.4813 172.328 11.884C172.328 11.2867 172.534 10.8013 172.944 10.428C173.374 10.036 173.915 9.84 174.568 9.84C175.222 9.84 175.754 10.036 176.164 10.428C176.594 10.8013 176.808 11.2867 176.808 11.884C176.808 12.4813 176.594 12.976 176.164 13.368C175.754 13.76 175.222 13.956 174.568 13.956ZM172.776 30V16.112H176.36V30H172.776ZM184.889 30.336C183.695 30.336 182.715 30.1493 181.949 29.776C181.184 29.384 180.615 28.8707 180.241 28.236C179.868 27.6013 179.681 26.9013 179.681 26.136C179.681 24.848 180.185 23.8027 181.193 23C182.201 22.1973 183.713 21.796 185.729 21.796H189.257V21.46C189.257 20.508 188.987 19.808 188.445 19.36C187.904 18.912 187.232 18.688 186.429 18.688C185.701 18.688 185.067 18.8653 184.525 19.22C183.984 19.556 183.648 20.06 183.517 20.732H180.017C180.111 19.724 180.447 18.8467 181.025 18.1C181.623 17.3533 182.388 16.784 183.321 16.392C184.255 15.9813 185.3 15.776 186.457 15.776C188.436 15.776 189.995 16.2707 191.133 17.26C192.272 18.2493 192.841 19.6493 192.841 21.46V30H189.789L189.453 27.76C189.043 28.5067 188.464 29.1227 187.717 29.608C186.989 30.0933 186.047 30.336 184.889 30.336ZM185.701 27.536C186.728 27.536 187.521 27.2 188.081 26.528C188.66 25.856 189.024 25.0253 189.173 24.036H186.121C185.169 24.036 184.488 24.2133 184.077 24.568C183.667 24.904 183.461 25.324 183.461 25.828C183.461 26.3693 183.667 26.7893 184.077 27.088C184.488 27.3867 185.029 27.536 185.701 27.536ZM196.261 30V9.84H199.845V30H196.261ZM203.2 23.392V20.396H214.932V23.392H203.2ZM218.273 30V16.112H221.437L221.745 17.988C222.193 17.316 222.781 16.784 223.509 16.392C224.256 15.9813 225.114 15.776 226.085 15.776C228.232 15.776 229.753 16.6067 230.649 18.268C231.153 17.5027 231.825 16.896 232.665 16.448C233.524 16 234.457 15.776 235.465 15.776C237.276 15.776 238.666 16.3173 239.637 17.4C240.608 18.4827 241.093 20.0693 241.093 22.16V30H237.509V22.496C237.509 21.3013 237.276 20.3867 236.809 19.752C236.361 19.1173 235.661 18.8 234.709 18.8C233.738 18.8 232.954 19.1547 232.357 19.864C231.778 20.5733 231.489 21.5627 231.489 22.832V30H227.905V22.496C227.905 21.3013 227.672 20.3867 227.205 19.752C226.738 19.1173 226.02 18.8 225.049 18.8C224.097 18.8 223.322 19.1547 222.725 19.864C222.146 20.5733 221.857 21.5627 221.857 22.832V30H218.273ZM251.244 30.336C249.844 30.336 248.602 30.0373 247.52 29.44C246.437 28.8427 245.588 28.0027 244.972 26.92C244.356 25.8373 244.048 24.5867 244.048 23.168C244.048 21.7307 244.346 20.452 244.944 19.332C245.56 18.212 246.4 17.344 247.464 16.728C248.546 16.0933 249.816 15.776 251.272 15.776C252.634 15.776 253.838 16.0747 254.884 16.672C255.929 17.2693 256.741 18.0907 257.32 19.136C257.917 20.1627 258.216 21.3107 258.216 22.58C258.216 22.7853 258.206 23 258.188 23.224C258.188 23.448 258.178 23.6813 258.16 23.924H247.604C247.678 25.0067 248.052 25.856 248.724 26.472C249.414 27.088 250.245 27.396 251.216 27.396C251.944 27.396 252.55 27.2373 253.036 26.92C253.54 26.584 253.913 26.1547 254.156 25.632H257.796C257.534 26.5093 257.096 27.312 256.48 28.04C255.882 28.7493 255.136 29.3093 254.24 29.72C253.362 30.1307 252.364 30.336 251.244 30.336ZM251.272 18.688C250.394 18.688 249.62 18.94 248.948 19.444C248.276 19.9293 247.846 20.676 247.66 21.684H254.576C254.52 20.7693 254.184 20.0413 253.568 19.5C252.952 18.9587 252.186 18.688 251.272 18.688ZM267.172 30C265.716 30 264.549 29.6453 263.672 28.936C262.795 28.2267 262.356 26.9667 262.356 25.156V19.108H259.976V16.112H262.356L262.776 12.388H265.94V16.112H269.692V19.108H265.94V25.184C265.94 25.856 266.08 26.3227 266.36 26.584C266.659 26.8267 267.163 26.948 267.872 26.948H269.608V30H267.172ZM277.557 30.336C276.363 30.336 275.383 30.1493 274.617 29.776C273.852 29.384 273.283 28.8707 272.909 28.236C272.536 27.6013 272.349 26.9013 272.349 26.136C272.349 24.848 272.853 23.8027 273.861 23C274.869 22.1973 276.381 21.796 278.397 21.796H281.925V21.46C281.925 20.508 281.655 19.808 281.113 19.36C280.572 18.912 279.9 18.688 279.097 18.688C278.369 18.688 277.735 18.8653 277.193 19.22C276.652 19.556 276.316 20.06 276.185 20.732H272.685C272.779 19.724 273.115 18.8467 273.693 18.1C274.291 17.3533 275.056 16.784 275.989 16.392C276.923 15.9813 277.968 15.776 279.125 15.776C281.104 15.776 282.663 16.2707 283.801 17.26C284.94 18.2493 285.509 19.6493 285.509 21.46V30H282.457L282.121 27.76C281.711 28.5067 281.132 29.1227 280.385 29.608C279.657 30.0933 278.715 30.336 277.557 30.336ZM278.369 27.536C279.396 27.536 280.189 27.2 280.749 26.528C281.328 25.856 281.692 25.0253 281.841 24.036H278.789C277.837 24.036 277.156 24.2133 276.745 24.568C276.335 24.904 276.129 25.324 276.129 25.828C276.129 26.3693 276.335 26.7893 276.745 27.088C277.156 27.3867 277.697 27.536 278.369 27.536Z" fill="#CC3644"/>
<path d="M7 10.4C7 7.38301 7 5.87452 7.93726 4.93726C8.87452 4 10.383 4 13.4 4H32.6C35.617 4 37.1255 4 38.0627 4.93726C39 5.87452 39 7.38301 39 10.4V29.6C39 32.617 39 34.1255 38.0627 35.0627C37.1255 36 35.617 36 32.6 36H13.4C10.383 36 8.87452 36 7.93726 35.0627C7 34.1255 7 32.617 7 29.6V10.4Z" fill="#CC3644"/>
<g clip-path="url(#clip0_107_346)">
<path d="M15.3199 12.32C15.3199 11.9805 15.4548 11.655 15.6948 11.4149C15.9349 11.1749 16.2605 11.04 16.5999 11.04H22.47C22.8095 11.0401 23.135 11.175 23.375 11.415L32.335 20.375C32.5749 20.6151 32.7098 20.9406 32.7098 21.28C32.7098 21.6194 32.5749 21.9449 32.335 22.185L26.4649 28.055C26.2249 28.295 25.8994 28.4298 25.5599 28.4298C25.2205 28.4298 24.895 28.295 24.655 28.055L15.695 19.095C15.4549 18.8551 15.32 18.5295 15.3199 18.1901V12.32ZM19.7999 17.44C20.3092 17.44 20.7975 17.2377 21.1576 16.8776C21.5177 16.5176 21.7199 16.0292 21.7199 15.52C21.7199 15.0108 21.5177 14.5224 21.1576 14.1624C20.7975 13.8023 20.3092 13.6 19.7999 13.6C19.2907 13.6 18.8024 13.8023 18.4423 14.1624C18.0822 14.5224 17.8799 15.0108 17.8799 15.52C17.8799 16.0292 18.0822 16.5176 18.4423 16.8776C18.8024 17.2377 19.2907 17.44 19.7999 17.44V17.44Z" fill="white"/>
<path d="M14.415 19.735C14.175 19.495 14.0401 19.1695 14.04 18.8301V12.32C13.7005 12.32 13.375 12.4549 13.1349 12.6949C12.8949 12.9349 12.76 13.2605 12.76 13.6V19.4701C12.7601 19.8095 12.895 20.135 13.135 20.375L22.095 29.335C22.3351 29.575 22.6606 29.7098 23 29.7098C23.3394 29.7098 23.6649 29.575 23.905 29.335L23.96 29.28L14.415 19.735V19.735Z" fill="white"/>
</g>
<defs>
<clipPath id="clip0_107_346">
<rect width="20.48" height="20.48" fill="white" transform="translate(12.76 9.76)"/>
</clipPath>
</defs>
</svg>
