<svg width="274" height="40" viewBox="0 0 274 40" fill="none" xmlns="http://www.w3.org/2000/svg">
<path d="M50.82 30V16.112H53.984L54.264 18.464C54.6933 17.6427 55.3093 16.9893 56.112 16.504C56.9333 16.0187 57.8947 15.776 58.996 15.776C60.7133 15.776 62.048 16.3173 63 17.4C63.952 18.4827 64.428 20.0693 64.428 22.16V30H60.844V22.496C60.844 21.3013 60.6013 20.3867 60.116 19.752C59.6307 19.1173 58.8747 18.8 57.848 18.8C56.84 18.8 56.0093 19.1547 55.356 19.864C54.7213 20.5733 54.404 21.5627 54.404 22.832V30H50.82ZM73.0632 30.336C71.3272 30.336 69.9832 29.7947 69.0312 28.712C68.0978 27.6293 67.6312 26.0427 67.6312 23.952V16.112H71.1872V23.616C71.1872 24.8107 71.4298 25.7253 71.9152 26.36C72.4005 26.9947 73.1658 27.312 74.2112 27.312C75.2005 27.312 76.0125 26.9573 76.6472 26.248C77.3005 25.5387 77.6272 24.5493 77.6272 23.28V16.112H81.2112V30H78.0472L77.7672 27.648C77.3378 28.4693 76.7125 29.1227 75.8912 29.608C75.0885 30.0933 74.1458 30.336 73.0632 30.336ZM83.5743 30L88.6143 23.056L83.5743 16.112H87.4103L90.9383 21.04L94.4383 16.112H98.3023L93.2343 23.056L98.3023 30H94.4383L90.9383 25.072L87.4103 30H83.5743ZM106.774 30C105.318 30 104.151 29.6453 103.274 28.936C102.396 28.2267 101.958 26.9667 101.958 25.156V19.108H99.5776V16.112H101.958L102.378 12.388H105.542V16.112H109.294V19.108H105.542V25.184C105.542 25.856 105.682 26.3227 105.962 26.584C106.26 26.8267 106.764 26.948 107.474 26.948H109.21V30H106.774ZM111.195 33.108L118.195 8.244H121.695L114.667 33.108H111.195Z" fill="#003C3C"/>
<path d="M129.896 30.336C128.664 30.336 127.581 30.14 126.648 29.748C125.715 29.3373 124.968 28.7773 124.408 28.068C123.848 27.3587 123.512 26.5373 123.4 25.604H127.012C127.124 26.1453 127.423 26.612 127.908 27.004C128.412 27.3773 129.056 27.564 129.84 27.564C130.624 27.564 131.193 27.4053 131.548 27.088C131.921 26.7707 132.108 26.4067 132.108 25.996C132.108 25.3987 131.847 24.9973 131.324 24.792C130.801 24.568 130.073 24.3533 129.14 24.148C128.543 24.0173 127.936 23.8587 127.32 23.672C126.704 23.4853 126.135 23.252 125.612 22.972C125.108 22.6733 124.697 22.3 124.38 21.852C124.063 21.3853 123.904 20.816 123.904 20.144C123.904 18.912 124.389 17.876 125.36 17.036C126.349 16.196 127.731 15.776 129.504 15.776C131.147 15.776 132.453 16.1587 133.424 16.924C134.413 17.6893 135.001 18.744 135.188 20.088H131.8C131.595 19.0613 130.82 18.548 129.476 18.548C128.804 18.548 128.281 18.6787 127.908 18.94C127.553 19.2013 127.376 19.528 127.376 19.92C127.376 20.3307 127.647 20.6573 128.188 20.9C128.729 21.1427 129.448 21.3667 130.344 21.572C131.315 21.796 132.201 22.048 133.004 22.328C133.825 22.5893 134.479 22.9907 134.964 23.532C135.449 24.0547 135.692 24.8107 135.692 25.8C135.711 26.6587 135.487 27.4333 135.02 28.124C134.553 28.8147 133.881 29.356 133.004 29.748C132.127 30.14 131.091 30.336 129.896 30.336ZM145.531 30.336C144.187 30.336 142.974 30.028 141.891 29.412C140.827 28.796 139.978 27.9467 139.343 26.864C138.727 25.7627 138.419 24.4933 138.419 23.056C138.419 21.6187 138.736 20.3587 139.371 19.276C140.006 18.1747 140.855 17.316 141.919 16.7C143.002 16.084 144.215 15.776 145.559 15.776C146.884 15.776 148.079 16.084 149.143 16.7C150.226 17.316 151.075 18.1747 151.691 19.276C152.326 20.3587 152.643 21.6187 152.643 23.056C152.643 24.4933 152.326 25.7627 151.691 26.864C151.075 27.9467 150.226 28.796 149.143 29.412C148.06 30.028 146.856 30.336 145.531 30.336ZM145.531 27.228C146.464 27.228 147.276 26.8827 147.967 26.192C148.658 25.4827 149.003 24.4373 149.003 23.056C149.003 21.6747 148.658 20.6387 147.967 19.948C147.276 19.2387 146.474 18.884 145.559 18.884C144.607 18.884 143.786 19.2387 143.095 19.948C142.423 20.6387 142.087 21.6747 142.087 23.056C142.087 24.4373 142.423 25.4827 143.095 26.192C143.786 26.8827 144.598 27.228 145.531 27.228ZM162.651 30.336C161.233 30.336 159.982 30.028 158.899 29.412C157.817 28.796 156.958 27.9373 156.323 26.836C155.707 25.7347 155.399 24.4747 155.399 23.056C155.399 21.6373 155.707 20.3773 156.323 19.276C156.958 18.1747 157.817 17.316 158.899 16.7C159.982 16.084 161.233 15.776 162.651 15.776C164.425 15.776 165.918 16.2427 167.131 17.176C168.345 18.0907 169.119 19.36 169.455 20.984H165.675C165.489 20.312 165.115 19.7893 164.555 19.416C164.014 19.024 163.37 18.828 162.623 18.828C161.634 18.828 160.794 19.2013 160.103 19.948C159.413 20.6947 159.067 21.7307 159.067 23.056C159.067 24.3813 159.413 25.4173 160.103 26.164C160.794 26.9107 161.634 27.284 162.623 27.284C163.37 27.284 164.014 27.0973 164.555 26.724C165.115 26.3507 165.489 25.8187 165.675 25.128H169.455C169.119 26.696 168.345 27.956 167.131 28.908C165.918 29.86 164.425 30.336 162.651 30.336ZM174.568 13.956C173.915 13.956 173.374 13.76 172.944 13.368C172.534 12.976 172.328 12.4813 172.328 11.884C172.328 11.2867 172.534 10.8013 172.944 10.428C173.374 10.036 173.915 9.84 174.568 9.84C175.222 9.84 175.754 10.036 176.164 10.428C176.594 10.8013 176.808 11.2867 176.808 11.884C176.808 12.4813 176.594 12.976 176.164 13.368C175.754 13.76 175.222 13.956 174.568 13.956ZM172.776 30V16.112H176.36V30H172.776ZM184.889 30.336C183.695 30.336 182.715 30.1493 181.949 29.776C181.184 29.384 180.615 28.8707 180.241 28.236C179.868 27.6013 179.681 26.9013 179.681 26.136C179.681 24.848 180.185 23.8027 181.193 23C182.201 22.1973 183.713 21.796 185.729 21.796H189.257V21.46C189.257 20.508 188.987 19.808 188.445 19.36C187.904 18.912 187.232 18.688 186.429 18.688C185.701 18.688 185.067 18.8653 184.525 19.22C183.984 19.556 183.648 20.06 183.517 20.732H180.017C180.111 19.724 180.447 18.8467 181.025 18.1C181.623 17.3533 182.388 16.784 183.321 16.392C184.255 15.9813 185.3 15.776 186.457 15.776C188.436 15.776 189.995 16.2707 191.133 17.26C192.272 18.2493 192.841 19.6493 192.841 21.46V30H189.789L189.453 27.76C189.043 28.5067 188.464 29.1227 187.717 29.608C186.989 30.0933 186.047 30.336 184.889 30.336ZM185.701 27.536C186.728 27.536 187.521 27.2 188.081 26.528C188.66 25.856 189.024 25.0253 189.173 24.036H186.121C185.169 24.036 184.488 24.2133 184.077 24.568C183.667 24.904 183.461 25.324 183.461 25.828C183.461 26.3693 183.667 26.7893 184.077 27.088C184.488 27.3867 185.029 27.536 185.701 27.536ZM196.261 30V9.84H199.845V30H196.261ZM203.2 23.392V20.396H214.932V23.392H203.2ZM224.461 30C223.005 30 221.838 29.6453 220.961 28.936C220.084 28.2267 219.645 26.9667 219.645 25.156V19.108H217.265V16.112H219.645L220.065 12.388H223.229V16.112H226.981V19.108H223.229V25.184C223.229 25.856 223.369 26.3227 223.649 26.584C223.948 26.8267 224.452 26.948 225.161 26.948H226.897V30H224.461ZM234.846 30.336C233.652 30.336 232.672 30.1493 231.906 29.776C231.141 29.384 230.572 28.8707 230.198 28.236C229.825 27.6013 229.638 26.9013 229.638 26.136C229.638 24.848 230.142 23.8027 231.15 23C232.158 22.1973 233.67 21.796 235.686 21.796H239.214V21.46C239.214 20.508 238.944 19.808 238.402 19.36C237.861 18.912 237.189 18.688 236.386 18.688C235.658 18.688 235.024 18.8653 234.482 19.22C233.941 19.556 233.605 20.06 233.474 20.732H229.974C230.068 19.724 230.404 18.8467 230.982 18.1C231.58 17.3533 232.345 16.784 233.278 16.392C234.212 15.9813 235.257 15.776 236.414 15.776C238.393 15.776 239.952 16.2707 241.09 17.26C242.229 18.2493 242.798 19.6493 242.798 21.46V30H239.746L239.41 27.76C239 28.5067 238.421 29.1227 237.674 29.608C236.946 30.0933 236.004 30.336 234.846 30.336ZM235.658 27.536C236.685 27.536 237.478 27.2 238.038 26.528C238.617 25.856 238.981 25.0253 239.13 24.036H236.078C235.126 24.036 234.445 24.2133 234.034 24.568C233.624 24.904 233.418 25.324 233.418 25.828C233.418 26.3693 233.624 26.7893 234.034 27.088C234.445 27.3867 234.986 27.536 235.658 27.536ZM252.098 25.856C251.426 25.856 250.801 25.7813 250.222 25.632L249.186 26.668C249.504 26.836 249.933 26.976 250.474 27.088C251.016 27.2 251.893 27.312 253.106 27.424C254.954 27.592 256.298 28.0307 257.138 28.74C257.978 29.4493 258.398 30.4293 258.398 31.68C258.398 32.5013 258.174 33.276 257.726 34.004C257.278 34.7507 256.588 35.348 255.654 35.796C254.721 36.2627 253.526 36.496 252.07 36.496C250.092 36.496 248.496 36.1227 247.282 35.376C246.069 34.648 245.462 33.5467 245.462 32.072C245.462 30.8213 246.069 29.7387 247.282 28.824C246.909 28.656 246.582 28.4787 246.302 28.292C246.041 28.1053 245.808 27.9093 245.602 27.704V27.06L248.038 24.484C246.956 23.532 246.414 22.3093 246.414 20.816C246.414 19.8827 246.638 19.0333 247.086 18.268C247.553 17.5027 248.206 16.896 249.046 16.448C249.886 16 250.904 15.776 252.098 15.776C252.882 15.776 253.61 15.888 254.282 16.112H259.546V18.296L257.166 18.464C257.54 19.1733 257.726 19.9573 257.726 20.816C257.726 21.7493 257.502 22.5987 257.054 23.364C256.606 24.1293 255.953 24.736 255.094 25.184C254.254 25.632 253.256 25.856 252.098 25.856ZM252.098 23.112C252.826 23.112 253.424 22.916 253.89 22.524C254.376 22.132 254.618 21.572 254.618 20.844C254.618 20.116 254.376 19.556 253.89 19.164C253.424 18.772 252.826 18.576 252.098 18.576C251.333 18.576 250.717 18.772 250.25 19.164C249.784 19.556 249.55 20.116 249.55 20.844C249.55 21.572 249.784 22.132 250.25 22.524C250.717 22.916 251.333 23.112 252.098 23.112ZM248.738 31.708C248.738 32.3987 249.056 32.912 249.69 33.248C250.344 33.6027 251.137 33.78 252.07 33.78C252.966 33.78 253.694 33.5933 254.254 33.22C254.814 32.8653 255.094 32.38 255.094 31.764C255.094 31.26 254.908 30.84 254.534 30.504C254.18 30.168 253.461 29.9627 252.378 29.888C251.613 29.832 250.904 29.748 250.25 29.636C249.709 29.9347 249.317 30.2613 249.074 30.616C248.85 30.9707 248.738 31.3347 248.738 31.708ZM267.9 30.336C266.668 30.336 265.585 30.14 264.652 29.748C263.719 29.3373 262.972 28.7773 262.412 28.068C261.852 27.3587 261.516 26.5373 261.404 25.604H265.016C265.128 26.1453 265.427 26.612 265.912 27.004C266.416 27.3773 267.06 27.564 267.844 27.564C268.628 27.564 269.197 27.4053 269.552 27.088C269.925 26.7707 270.112 26.4067 270.112 25.996C270.112 25.3987 269.851 24.9973 269.328 24.792C268.805 24.568 268.077 24.3533 267.144 24.148C266.547 24.0173 265.94 23.8587 265.324 23.672C264.708 23.4853 264.139 23.252 263.616 22.972C263.112 22.6733 262.701 22.3 262.384 21.852C262.067 21.3853 261.908 20.816 261.908 20.144C261.908 18.912 262.393 17.876 263.364 17.036C264.353 16.196 265.735 15.776 267.508 15.776C269.151 15.776 270.457 16.1587 271.428 16.924C272.417 17.6893 273.005 18.744 273.192 20.088H269.804C269.599 19.0613 268.824 18.548 267.48 18.548C266.808 18.548 266.285 18.6787 265.912 18.94C265.557 19.2013 265.38 19.528 265.38 19.92C265.38 20.3307 265.651 20.6573 266.192 20.9C266.733 21.1427 267.452 21.3667 268.348 21.572C269.319 21.796 270.205 22.048 271.008 22.328C271.829 22.5893 272.483 22.9907 272.968 23.532C273.453 24.0547 273.696 24.8107 273.696 25.8C273.715 26.6587 273.491 27.4333 273.024 28.124C272.557 28.8147 271.885 29.356 271.008 29.748C270.131 30.14 269.095 30.336 267.9 30.336Z" fill="#CC3644"/>
<path d="M7 10.4C7 7.38301 7 5.87452 7.93726 4.93726C8.87452 4 10.383 4 13.4 4H32.6C35.617 4 37.1255 4 38.0627 4.93726C39 5.87452 39 7.38301 39 10.4V29.6C39 32.617 39 34.1255 38.0627 35.0627C37.1255 36 35.617 36 32.6 36H13.4C10.383 36 8.87452 36 7.93726 35.0627C7 34.1255 7 32.617 7 29.6V10.4Z" fill="#CC3644"/>
<g clip-path="url(#clip0_107_346)">
<path d="M15.3199 12.32C15.3199 11.9805 15.4548 11.655 15.6948 11.4149C15.9349 11.1749 16.2605 11.04 16.5999 11.04H22.47C22.8095 11.0401 23.135 11.175 23.375 11.415L32.335 20.375C32.5749 20.6151 32.7098 20.9406 32.7098 21.28C32.7098 21.6194 32.5749 21.9449 32.335 22.185L26.4649 28.055C26.2249 28.295 25.8994 28.4298 25.5599 28.4298C25.2205 28.4298 24.895 28.295 24.655 28.055L15.695 19.095C15.4549 18.8551 15.32 18.5295 15.3199 18.1901V12.32ZM19.7999 17.44C20.3092 17.44 20.7975 17.2377 21.1576 16.8776C21.5177 16.5176 21.7199 16.0292 21.7199 15.52C21.7199 15.0108 21.5177 14.5224 21.1576 14.1624C20.7975 13.8023 20.3092 13.6 19.7999 13.6C19.2907 13.6 18.8024 13.8023 18.4423 14.1624C18.0822 14.5224 17.8799 15.0108 17.8799 15.52C17.8799 16.0292 18.0822 16.5176 18.4423 16.8776C18.8024 17.2377 19.2907 17.44 19.7999 17.44Z" fill="white"/>
<path d="M14.415 19.735C14.175 19.495 14.0401 19.1695 14.04 18.8301V12.32C13.7005 12.32 13.375 12.4549 13.1349 12.6949C12.8949 12.9349 12.76 13.2605 12.76 13.6V19.4701C12.7601 19.8095 12.895 20.135 13.135 20.375L22.095 29.335C22.3351 29.575 22.6606 29.7098 23 29.7098C23.3394 29.7098 23.6649 29.575 23.905 29.335L23.96 29.28L14.415 19.735Z" fill="white"/>
</g>
<defs>
<clipPath id="clip0_107_346">
<rect width="20.48" height="20.48" fill="white" transform="translate(12.76 9.76)"/>
</clipPath>
</defs>
</svg>
